<?xml version="1.0" encoding="UTF-8"?>
<svg width="155px" height="55px" viewBox="0 0 155 55" version="1.1" xmlns="http://www.w3.org/2000/svg" xmlns:xlink="http://www.w3.org/1999/xlink">
    <!-- Generator: Sketch 55 (78076) - https://sketchapp.com -->
    <title>HeaderLogo</title>
    <desc>Created with Sketch.</desc>
    <defs>
        <polygon id="path-1" points="0.0106959064 0.407132773 33.0139123 0.407132773 33.0139123 17.697479 0.0106959064 17.697479"></polygon>
    </defs>
    <g id="基本デザイン" stroke="none" stroke-width="1" fill="none" fill-rule="evenodd">
        <g id="Artboard" transform="translate(-10.000000, -25.000000)">
            <g id="サイドナビ" transform="translate(0.000000, 5.000000)">
                <g id="Group" transform="translate(10.000000, 20.000000)">
                    <g id="Group-2">
                        <g id="マーク" transform="translate(0.000000, 1.000000)">
                            <g id="Group-30">
                                <path d="M138.4523,35.8187445 C137.374551,28.506963 135.666832,22.2946941 133.332314,17.1846605 C131.017285,17.6298202 128.572636,18.0590975 126.004712,18.4734 C131.063966,22.3623076 135.213615,28.1416689 138.4523,35.8187445" id="Fill-1" fill="#552277"></path>
                                <path d="M66.5497939,27.4805092 C68.6463728,26.1731647 70.7044284,24.9565765 72.7194284,23.8216689 C71.8274985,23.8752151 70.9260512,23.9283076 70.0191652,23.9804924 C68.8738874,25.1099546 67.7195453,26.2725429 66.5497939,27.4805092" id="Fill-3" fill="#552277"></path>
                                <path d="M121.60806,15.6857748 C125.050238,15.2555899 128.482899,14.8117916 131.914654,14.3598252 C131.204463,13.0719933 130.446686,11.865842 129.644039,10.7436403 C117.458864,-6.43516639 98.6114079,-3.01093109 73.1048436,21.006363 C75.1180307,20.8175899 77.1330307,20.6224639 79.1434985,20.4250689 C96.7042734,11.7696403 110.856408,10.1900269 121.60806,15.6857748" id="Fill-5" fill="#552277"></path>
                                <path d="M97.2463202,36.4799496 C96.4441272,36.485395 95.7593173,36.6528403 95.182826,36.9850084 C94.6231038,37.3267059 94.3389371,37.735563 94.3226213,38.2111261 C94.3330453,38.6880504 94.617212,39.0987227 95.172402,39.4417815 C95.7407354,39.7739496 96.4323436,39.9468403 97.231364,39.9536471 C98.0308377,39.9491092 98.718367,39.7789412 99.2939518,39.4472269 C99.8554868,39.1068908 100.141013,38.6989412 100.153703,38.2220168 C100.142373,37.7428235 99.8618319,37.3353277 99.3039225,36.9931765 C98.7319635,36.6601008 98.0485132,36.4872101 97.2463202,36.4799496" id="Fill-7" fill="#CE0074"></path>
                                <path d="M126.004757,18.4735815 C128.572681,18.0610941 131.01733,17.6300017 133.33236,17.1843882 C132.88005,16.2014975 132.410971,15.2603546 131.914699,14.3577832 C128.485664,14.8129261 125.050284,15.255363 121.606746,15.6855479 C123.144962,16.4710437 124.608398,17.4003882 126.004757,18.4735815" id="Fill-9" fill="#CE0074"></path>
                                <path d="M154.988488,11.1355261 C147.325506,12.2640807 139.633971,13.3390891 131.914789,14.3578286 C132.409702,15.2590387 132.883766,16.2024504 133.331544,17.1844336 C142.512801,15.418316 149.732085,13.4030723 154.988488,11.1355261" id="Fill-11" fill="#CE0074"></path>
                                <path d="M79.1433626,20.425205 C77.0508626,21.4571042 74.9107749,22.5883815 72.7194737,23.8213059 C94.2164327,22.5162303 111.977982,20.7351378 126.004576,18.4734908 C124.60595,17.4002975 123.145687,16.4709529 121.607924,15.6859109 C107.547339,17.4493059 93.3920322,19.0271042 79.1433626,20.425205" id="Fill-13" fill="#CE0074"></path>
                                <path d="M72.719519,23.8214874 C74.9108202,22.5881092 77.0509079,21.4572857 79.1434079,20.4253866 C77.1311272,20.6214202 75.1179401,20.8165462 73.1052061,21.0062269 C72.0863757,21.9623445 71.0593874,22.9574874 70.0192558,23.9807647 C70.9261418,23.9294874 71.827136,23.8750336 72.719519,23.8214874" id="Fill-15" fill="#CE0074"></path>
                                <path d="M70.0192558,23.9805832 C71.0593874,22.9595748 72.0863757,21.9644319 73.1052061,21.0060454 C49.0036126,23.2776756 24.6364342,25.0315412 4.53216374e-05,26.2631042 C26.5313319,25.9127849 49.8665365,25.1527008 70.0192558,23.9805832" id="Fill-17" fill="#CE0074"></path>
                                <path d="M115.227181,51.6603479 C115.096655,51.5813899 114.994681,51.481558 114.92126,51.3599445 C114.849652,51.2401462 114.812488,51.1094571 114.812488,50.9701462 L114.812488,41.9893563 L119.413088,41.9893563 L119.413088,40.8113395 L114.812488,40.8113395 L114.812488,36.0924655 L113.312342,36.0924655 C112.413614,38.5351714 109.865632,40.1556252 105.672927,40.9524655 L105.672927,41.9893563 L108.233599,41.9893563 L108.233599,51.1684487 C108.317444,51.5909193 108.573512,51.9793563 108.998629,52.3355748 C109.427371,52.6917933 109.977576,52.9754067 110.652868,53.1909529 C111.714301,53.4663983 112.834652,53.6025328 114.010295,53.5989025 C115.190924,53.5907345 116.302664,53.444163 117.354126,53.1569193 C118.030325,52.9204992 118.581889,52.6182807 119.018789,52.2557092 C119.448439,51.8863311 119.72626,51.4879109 119.84455,51.0577261 L118.823,51.0577261 C117.581187,52.1812891 116.379711,52.3809529 115.227181,51.6603479" id="Fill-19" fill="#3E3A39"></path>
                                <path d="M132.957051,50.8591513 C132.757636,51.0815042 132.467124,51.2548487 132.087329,51.381 C131.79999,51.4794706 131.488177,51.5298403 131.148265,51.5339244 C130.811525,51.5361933 130.496993,51.4903613 130.204668,51.3964286 C129.909624,51.3011345 129.683016,51.1713529 129.515326,51.0061765 C129.075253,50.2805798 129.135531,49.5681429 129.696159,48.8702269 C130.345618,48.2403782 131.235735,47.7688992 132.362431,47.4526134 C132.457154,47.4294706 132.550969,47.4294706 132.645238,47.4571513 C132.738148,47.4857395 132.810662,47.5352017 132.869127,47.6073529 C132.926686,47.6772353 132.955692,47.7584622 132.957051,47.8474034 L132.957051,50.8591513 Z M139.142548,51.6709664 C138.857475,51.4880924 138.709273,51.2711849 138.707007,51.0270504 L138.707007,45.5362941 C138.688425,43.8577563 137.330136,42.6484286 134.634858,41.9074034 C131.331364,41.3301933 128.208703,41.5870336 125.270955,42.6788319 C124.681773,42.907084 124.233089,43.2015882 123.913118,43.5605294 C123.597227,43.9221933 123.452197,44.302916 123.482563,44.7045126 C123.476218,45.087958 123.681525,45.4296555 124.097124,45.7336891 C124.522241,46.0318235 125.066101,46.2255882 125.724624,46.3118067 C126.391306,46.3925798 127.028528,46.348563 127.635838,46.182479 C128.13211,46.0504286 128.521423,45.8534874 128.805589,45.5893866 C129.090662,45.3266471 129.222548,45.0407647 129.201247,44.7326471 C129.175867,44.425437 129.004551,44.1459076 128.690019,43.8945126 C128.491963,43.8082941 128.36461,43.698479 128.30977,43.5623445 C128.259463,43.4225798 128.292548,43.2941597 128.409478,43.1707311 C128.528674,43.0468487 128.703162,42.9592689 128.936569,42.9084454 C129.920501,42.6942605 130.917124,42.6752017 131.927797,42.8558067 C132.21423,42.9261429 132.454887,43.0345966 132.63708,43.1775378 C132.822446,43.3227479 132.926686,43.482479 132.957051,43.6580924 L132.957051,45.9347143 C132.952972,46.0504286 132.912636,46.1538908 132.825618,46.2460084 C132.738148,46.3331345 132.628469,46.3875882 132.49613,46.4057395 C129.78363,46.7347311 127.334449,47.3886303 125.150852,48.3665294 C124.045458,48.8452689 123.319405,49.4655882 122.973148,50.2247647 C122.651817,50.9848487 122.778718,51.7231513 123.353849,52.4346807 C123.735004,52.8181261 124.2698,53.1144454 124.952797,53.325 C125.642592,53.5319244 126.374537,53.6185966 127.152256,53.5850168 C128.244054,53.6108824 129.295063,53.5110504 130.308455,53.2787143 C131.320034,53.0491008 132.202446,52.7069496 132.957051,52.2649664 C133.575238,52.8208487 134.433177,53.2133697 135.529054,53.4384454 C136.633089,53.6508151 137.733499,53.6508151 138.8398,53.4384454 C139.934317,53.2133697 140.794069,52.8208487 141.414069,52.2649664 L141.414069,51.7871345 C141.065545,51.9300756 140.672154,51.9976891 140.237972,51.9763613 C139.805151,51.9518571 139.443937,51.8506639 139.142548,51.6709664 L139.142548,51.6709664 Z" id="Fill-21" fill="#3E3A39"></path>
                                <path d="M100.225447,51.6133815 C100.163357,51.4654487 100.132991,51.3102555 100.132991,51.1505244 L100.132991,42.1570286 L91.6424357,42.1570286 L91.6424357,42.6180706 C92.5515877,42.6484739 93.1992339,42.7723563 93.5912661,42.9829109 C94.0050526,43.2166084 94.2162515,43.495684 94.2275819,43.8246756 L94.2275819,51.0171126 C94.2221433,51.4513815 94.0675965,51.8380034 93.7634883,52.1774319 C93.4489561,52.5118689 93.0523918,52.7224235 92.5737953,52.8122723 C92.3150088,52.8617345 92.0240439,52.8885076 91.701807,52.8903227 L91.701807,53.5986756 L102.860447,53.5986756 L102.860447,52.8953143 C101.421939,52.8812471 100.541792,52.4551462 100.225447,51.6133815" id="Fill-23" fill="#3E3A39"></path>
                                <path d="M86.5129781,52.2484034 L79.3671155,45.8768571 L82.631633,43.5680168 C83.4922909,42.9708403 84.468519,42.6695294 85.5571447,42.6586387 L86.5773348,42.6586387 L86.5773348,41.8200504 L78.1379927,41.8200504 L78.1379927,42.6586387 L79.8493377,42.6586387 C79.9853026,42.6586387 80.1149225,42.6976639 80.2309459,42.7661849 C80.3433436,42.8383361 80.4240161,42.9363529 80.4679781,43.0520672 C80.5137529,43.1705042 80.5196447,43.2903025 80.4797617,43.4101008 C80.4407851,43.5276303 80.3687237,43.6292773 80.2558728,43.7059664 L74.8109313,47.5540336 L74.8109313,36.4336639 L66.1236798,36.4336639 L66.1236798,36.9096807 L66.6562091,36.9096807 C67.2367792,36.9142185 67.7371301,37.0285714 68.1581681,37.2536471 C68.5669693,37.4814454 68.7754488,37.7614286 68.7876857,38.0858824 L68.7876857,51.6190084 C68.5896301,52.577395 67.7525395,52.9962353 66.2813991,52.8777983 L66.2813991,53.5988571 L77.0860775,53.5988571 L77.0860775,52.8882353 C76.3844985,52.8424034 75.8546886,52.7049076 75.4998202,52.4780168 C75.2822763,52.3427899 75.1163991,52.174437 74.9931243,51.9679664 C74.8734751,51.7605882 74.8109313,51.540958 74.8109313,51.3077143 L74.8109313,49.0946218 L75.5174956,48.595916 L79.508519,52.1463025 C79.5574664,52.1939496 79.5864722,52.2484034 79.6014284,52.3110252 C79.6172909,52.375916 79.6104927,52.4376303 79.5810336,52.4961681 C79.4627442,52.7911261 78.9678319,52.9258992 78.1003757,52.8973109 L78.1003757,53.5988571 L88.5923348,53.5988571 L88.5923348,52.8337815 C88.0244547,52.8233445 87.4157851,52.6822185 86.7654196,52.4063193 C86.6702442,52.3668403 86.5863991,52.3123866 86.5129781,52.2484034" id="Fill-25" fill="#3E3A39"></path>
                                <g id="Group-29" transform="translate(30.818713, 36.008017)">
                                    <mask id="mask-2" fill="white">
                                        <use xlink:href="#path-1"></use>
                                    </mask>
                                    <g id="Clip-28"></g>
                                    <path d="M9.86452632,10.8672504 L14.1569386,4.74664538 L18.3269825,10.8672504 L9.86452632,10.8672504 Z M30.4468947,16.606679 C29.7657105,16.4319731 29.2359006,16.0780235 28.8524795,15.5443765 L18.3201842,0.407132773 L15.529731,0.407132773 L4.0293655,16.0585109 C3.84717251,16.3030992 3.60923392,16.4991328 3.32189474,16.6388975 C3.02821053,16.7763933 2.71685088,16.8494521 2.38645614,16.8494521 L0.0106959064,16.8494521 L0.0106959064,17.6975697 L10.1645556,17.6975697 L10.1645556,16.8494521 L7.32334211,16.8494521 C7.0962807,16.847637 6.89913158,16.7818387 6.72554971,16.6529647 C6.55695322,16.5204605 6.45361988,16.3561916 6.41736257,16.1560739 C6.38563743,15.9564101 6.42823977,15.7703597 6.54516959,15.599284 L9.07185088,11.9953513 L19.0969971,11.9953513 L21.5973918,15.6655361 C21.7097895,15.8343429 21.7514854,16.0199395 21.7165877,16.2155193 C21.6789708,16.4120067 21.5756374,16.5730992 21.4097602,16.7024269 C21.2370848,16.8281244 21.0408421,16.895284 20.8165,16.895284 L18.5748918,16.895284 L18.5748918,17.6712504 L33.0139123,17.6712504 L33.0139123,16.8494521 C32.0404035,16.8775866 31.1851842,16.7972672 30.4468947,16.606679 L30.4468947,16.606679 Z" id="Fill-27" fill="#3E3A39" mask="url(#mask-2)"></path>
                                </g>
                            </g>
                        </g>
                    </g>
                </g>
            </g>
        </g>
    </g>
</svg>