<?xml version="1.0" encoding="UTF-8"?>
<svg width="18px" height="13px" viewBox="0 0 18 13" version="1.1" xmlns="http://www.w3.org/2000/svg" xmlns:xlink="http://www.w3.org/1999/xlink">
    <!-- Generator: Sketch 55.1 (78136) - https://sketchapp.com -->
    <title>menu-04</title>
    <desc>Created with Sketch.</desc>
    <g id="基本デザイン" stroke="none" stroke-width="1" fill="none" fill-rule="evenodd">
        <g id="パーツ" transform="translate(-656.000000, -1045.000000)" fill="#4B4B4B" fill-rule="nonzero">
            <g id="Group" transform="translate(656.000000, 1045.000000)">
                <g id="_i_icon_11725_icon_117250トラック" transform="translate(9.000000, 6.500000) scale(-1, 1) translate(-9.000000, -6.500000) translate(0.000000, 0.500000)">
                    <path d="M17.492625,4.00049219 L8.86092188,4.00049219 C8.58065625,4.00049219 8.35375781,4.07632328 8.35375781,4.16991481 L8.35375781,6.83108131 C8.35375781,6.9246611 8.58065625,7.00049219 8.86092188,7.00049219 L17.492625,7.00049219 C17.7728906,7.00049219 18,6.9246611 18,6.83108131 L18,4.16991481 C18,4.07632328 17.7728906,4.00049219 17.492625,4.00049219 Z" id="Path"></path>
                    <path d="M4.10213672,8.34789062 C3.15868359,8.34789062 2.39333203,9.11303125 2.39333203,10.0564844 C2.39333203,11.0004297 3.15868359,11.7655703 4.10213672,11.7655703 C5.04587109,11.7655703 5.81101172,11.0004297 5.81101172,10.0564844 C5.81097656,9.11303125 5.04583594,8.34789062 4.10213672,8.34789062 Z M4.10213672,10.8259141 C3.67748437,10.8259141 3.33323437,10.481418 3.33323437,10.0564844 C3.33323437,9.63204297 3.67748437,9.28779297 4.10213672,9.28779297 C4.52682422,9.28779297 4.87107422,9.63204297 4.87107422,10.0564844 C4.87107422,10.481418 4.52682422,10.8259141 4.10213672,10.8259141 Z" id="Shape"></path>
                    <path d="M14.1960938,8.34789062 C13.2526406,8.34789062 12.4875,9.11303125 12.4875,10.0564844 C12.4875,11.0004297 13.2526406,11.7655703 14.1960938,11.7655703 C15.139793,11.7655703 15.9048984,11.0004297 15.9048984,10.0564844 C15.9048984,9.11303125 15.139793,8.34789062 14.1960938,8.34789062 Z M14.1960938,10.8259141 C13.7716523,10.8259141 13.4274023,10.481418 13.4274023,10.0564844 C13.4274023,9.63204297 13.7716523,9.28779297 14.1960938,9.28779297 C14.6207461,9.28779297 14.9649961,9.63204297 14.9649961,10.0564844 C14.9649961,10.481418 14.6207461,10.8259141 14.1960938,10.8259141 Z" id="Shape"></path>
                    <path d="M7.03543359,0.412527344 L3.18171094,0.412527344 C3.05651953,0.412527344 2.93712891,0.468144531 2.85721875,0.564789063 L0.09815625,3.87520703 C0.0346640625,3.95082813 0,4.04669922 0,4.14583984 L0,7.04957031 L0,8.56796875 C0,8.8016875 0.189457031,8.99086328 0.422929687,8.99086328 L1.71794531,8.99086328 C2.12695312,8.08031641 3.04083984,7.44314453 4.10213672,7.44314453 C5.16371484,7.44314453 6.07732031,8.08031641 6.48608203,8.99086328 L7.45889062,8.99086328 L7.45889062,0.835421875 C7.45889062,0.601667969 7.26915234,0.412527344 7.03543359,0.412527344 Z M1.54444922,4.18936328 C1.54444922,4.08920313 1.57883203,3.99206641 1.64207812,3.91444141 L3.40351172,1.74551172 C3.48648047,1.6433125 3.61093359,1.58414453 3.74220703,1.58414453 L5.46746484,1.58414453 C5.70853125,1.58414453 5.90354297,1.77940234 5.90354297,2.02046875 L5.90354297,4.48179297 C5.90354297,4.72257813 5.70853125,4.91787109 5.46746484,4.91787109 L1.98024609,4.91787109 C1.73970703,4.91787109 1.54444922,4.72261328 1.54444922,4.48179297 L1.54444922,4.18936328 Z" id="Shape"></path>
                    <path d="M8.56167188,7.80128125 C8.43015234,7.80128125 8.32391016,7.90776953 8.32391016,8.03928906 L8.32391016,8.75306641 C8.32391016,8.884375 8.43015234,8.99082813 8.56167188,8.99082813 L11.8124297,8.99082813 C12.0365156,8.49129297 12.4126172,8.07595703 12.8818477,7.80128125 L8.56167188,7.80128125 L8.56167188,7.80128125 Z" id="Path"></path>
                    <path d="M17.7321445,7.80128125 L15.5106211,7.80128125 C15.9798164,8.07599219 16.3559531,8.49129297 16.5800391,8.99082813 L17.7321445,8.99082813 C17.8636641,8.99082813 17.9699062,8.884375 17.9699062,8.75306641 L17.9699062,8.03928906 C17.9699062,7.90776953 17.8636641,7.80128125 17.7321445,7.80128125 Z" id="Path"></path>
                </g>
            </g>
        </g>
    </g>
</svg>