<?xml version="1.0" encoding="UTF-8"?>
<svg width="18px" height="13px" viewBox="0 0 18 13" version="1.1" xmlns="http://www.w3.org/2000/svg" xmlns:xlink="http://www.w3.org/1999/xlink">
    <!-- Generator: Sketch 55.1 (78136) - https://sketchapp.com -->
    <title>menu-01</title>
    <desc>Created with Sketch.</desc>
    <g id="基本デザイン" stroke="none" stroke-width="1" fill="none" fill-rule="evenodd">
        <g id="パーツ" transform="translate(-656.000000, -1064.000000)" fill="#4B4B4B" fill-rule="nonzero">
            <g id="_i_icon_15001_icon_150010_人物-copy-4" transform="translate(656.000000, 1064.000000)">
                <g id="_i_icon_15001_icon_150010_人物-copy-3" transform="translate(3.000000, 0.000000)">
                    <path d="M7.74001379,9.05003194 C7.20998586,8.72917067 7.01981066,8.76149293 7.01981066,8.12043054 C7.01981066,7.89605363 7.01981066,7.47916503 7.01981066,7.0945733 C7.31071805,6.77414367 7.41651884,6.81403233 7.66252552,5.55597786 C8.15999148,5.55597786 8.1277623,4.91491548 8.36240302,4.34626714 C8.55365337,3.883193 8.39345464,3.69545475 8.23235994,3.6187243 C8.36404135,1.93121287 8.36404135,0.768982607 6.43295289,0.408435796 C5.732973,-0.186644179 4.6767314,0.0153889892 4.17619356,0.114691706 C3.6760909,0.213994423 3.22495918,0.114691706 3.22495918,0.114691706 L3.31086953,0.914242348 C2.57853246,1.78595313 2.94475219,2.9481834 2.82684306,3.62890594 C2.67319768,3.71193326 2.53460453,3.90335315 2.7175608,4.34626714 C2.95217591,4.91491548 2.91994673,5.55597786 3.41743829,5.55597786 C3.66344498,6.81403233 3.76922017,6.77414367 4.06015315,7.0945733 C4.06015315,7.47916503 4.06015315,7.89605363 4.06015315,8.12043054 C4.06015315,8.76149293 3.84048787,8.77253785 3.33997563,9.05003194 C2.13323733,9.7190494 0.560714482,10.1077544 0.278971552,12.1987228 C0.227363906,12.5811563 2.44127046,12.9986797 5.53998191,13 C8.63869335,12.9986797 10.8524975,12.5811563 10.8010179,12.1987228 C10.5192749,10.1077544 8.93233983,9.77150642 7.74001379,9.05003194 Z" id="Path"></path>
                </g>
            </g>
        </g>
    </g>
</svg>